Coordinates
version=1
nRows=16
nColumns=36
inDegrees=yes

Units are S.I. units (second, meters, Newtons, ...)
If the header above contains a line with 'inDegrees', this indicates whether rotational values are in degrees (yes) or radians (no).

endheader
time	pelvis_tilt	pelvis_list	pelvis_rotation	pelvis_tx	pelvis_ty	pelvis_tz	hip_flexion_r	hip_adduction_r	hip_rotation_r	knee_angle_r	knee_angle_r_beta	ankle_angle_r	subtalar_angle_r	mtp_angle_r	hip_flexion_l	hip_adduction_l	hip_rotation_l	knee_angle_l	knee_angle_l_beta	ankle_angle_l	subtalar_angle_l	mtp_angle_l	lumbar_extension	lumbar_bending	lumbar_rotation	arm_flex_r	arm_add_r	arm_rot_r	elbow_flex_r	pro_sup_r	arm_flex_l	arm_add_l	arm_rot_l	elbow_flex_l	pro_sup_l
      0.00000000	      0.95321139	     -0.47351164	     -5.02862352	     -0.01299191	      1.32490397	     -0.06725272	     -5.65458072	      2.87725147	      1.74673071	      5.24615986	      0.09156276	     11.95501565	     -7.54744037	     -6.23201436	     -6.06124469	     -2.92698453	     -3.38818083	      4.16135910	      0.07262942	     18.78348275	      2.55014169	     -6.23201436	     -3.92836308	      2.58951780	     -1.76881817	      0.98799814	     -6.13511303	      9.46724336	     24.11042159	     78.45874271	      0.56956117	     -4.58441698	      6.40419042	     25.98858059	     75.72834064
      0.01666670	     -3.35157136	      0.62876370	     -5.18125057	     -0.00895189	      1.32105715	     -0.06815994	     -0.72266938	      2.13726813	      2.58007549	      6.23821783	      0.10887744	     15.11599116	     -5.71386994	     -6.47523808	     -0.92348573	     -1.66508553	     -3.01077819	      4.55591409	      0.07951570	     17.93425412	      3.42927478	     -6.47523808	      2.45184567	      2.38380165	     -2.06248965	     -0.63814463	     -5.62106649	      6.50751498	     23.50968280	     76.62240319	     -0.62725679	     -3.39206278	      3.03396170	     24.54855354	     73.92411807
      0.03333330	     -4.62501814	      1.83804436	     -5.11572275	     -0.00841996	      1.31739779	     -0.06722062	      0.20786595	      0.87668243	      2.24859261	      5.39585341	      0.09417541	     15.24984253	     -5.25427351	     -6.94241463	      0.36218281	     -0.53512267	     -3.82300745	      4.31423353	      0.07529758	     17.79180666	      4.46275326	     -6.94241463	      4.68367455	      1.00660895	     -1.93448463	     -1.61551538	     -4.85886390	      1.52152717	     24.45270220	     83.96812099	     -1.25396578	     -3.59882029	      1.67391104	     24.44877165	     78.98766969
      0.05000000	     -4.36054820	      2.37910037	     -5.03828715	     -0.00923536	      1.31720647	     -0.06711822	     -0.47739290	      0.22250001	      2.37997892	      4.72269324	      0.08242655	     15.42679734	     -5.21341560	     -6.99607545	     -0.54899610	      0.20394118	     -3.71043563	      3.30385806	      0.05766320	     17.51562305	      4.87229645	     -6.99607545	      4.76677488	      0.24904255	     -1.75182391	     -1.70265559	     -4.73433592	      1.82607104	     24.44748353	     82.52012701	     -1.42526634	     -3.91282168	      2.29607164	     24.44220553	     77.67381206
      0.06666670	     -4.21810553	      2.50642340	     -4.91998048	     -0.01127470	      1.31582524	     -0.06674446	     -0.80544747	      0.15941364	      2.50125558	      4.27368919	      0.07458995	     15.76120291	     -5.15651211	     -7.28792423	     -0.92449282	      0.40783647	     -3.64429375	      2.76791242	      0.04830919	     17.52988192	      5.13486594	     -7.28792423	      4.55418294	      0.07900719	     -1.44363689	     -1.90560273	     -4.93190015	      2.87617234	     25.28667623	     83.63593171	     -1.16120886	     -4.42661497	      5.12691457	     24.59799989	     77.66802369
      0.08333330	     -4.09373451	      2.57377778	     -4.75877341	     -0.00880349	      1.31761065	     -0.06726184	     -1.23197923	      0.10355175	      2.64815838	      3.92479384	      0.06850058	     15.53868085	     -5.71927307	     -7.42415602	     -1.21221208	      0.56588571	     -3.57259586	      2.47112259	      0.04312923	     17.46194739	      5.27729081	     -7.42415602	      4.55986021	     -0.04661106	     -1.36452215	     -1.97288216	     -5.05481575	      3.99006053	     25.53949834	     83.17166533	     -0.91822293	     -4.54834353	      5.92065885	     24.52850154	     77.30433517
      0.10000000	     -4.37230561	      2.63896053	     -4.65857471	     -0.00983896	      1.31707958	     -0.06633569	     -1.00253520	      0.11147402	      2.79479621	      3.84921809	      0.06718153	     15.64861913	     -6.01821724	     -7.47239068	     -0.82489428	      0.62706756	     -3.49771276	      2.51050997	      0.04381666	     17.56007665	      5.19192047	     -7.47239068	      4.87182545	     -0.15771591	     -1.33601646	     -2.06590095	     -5.10977422	      4.84138501	     25.76241536	     83.13564380	     -0.77011602	     -4.59138148	      5.85736347	     24.63619016	     77.50881574
      0.11666670	     -4.51348033	      2.60672329	     -4.58823900	     -0.00878682	      1.31677983	     -0.06691946	     -0.92055069	      0.20893115	      3.16055858	      3.60746973	      0.06296222	     15.51118088	     -6.41039935	     -7.48505923	     -0.61230759	      0.57328422	     -3.34065151	      2.57823962	      0.04499877	     17.74226613	      5.36154771	     -7.48505923	      5.09602566	     -0.19477277	     -1.38518988	     -2.05726397	     -5.35721160	      7.13218663	     25.78536672	     79.34851613	     -0.56480555	     -4.71599077	      7.03504139	     24.56591692	     74.25850291
      0.13333330	     -4.76001422	      2.58988679	     -4.75821007	     -0.00893808	      1.32153331	     -0.06666114	     -0.70822951	      0.25990368	      3.29311156	      3.55276285	      0.06200741	     15.35213786	     -6.44195359	     -7.49174705	     -0.39419624	      0.54161938	     -3.30659399	      2.57980390	      0.04502607	     17.60341443	      5.25145875	     -7.49174705	      5.53664482	     -0.16261465	     -1.35071373	     -2.16903356	     -5.21497192	      6.08931875	     25.58781782	     83.29920921	     -0.65270688	     -4.46941855	      5.12757578	     24.43725689	     78.01759678
      0.15000000	     -4.82145378	      2.56083994	     -4.85804093	     -0.01242384	      1.31537892	     -0.06676569	     -0.59881692	      0.30449135	      3.26999788	      3.45717764	      0.06033913	     15.34101000	     -6.49131559	     -7.49176217	     -0.25959214	      0.50748331	     -3.30619964	      2.51334810	      0.04386620	     17.67300738	      5.23640392	     -7.49176217	      5.50001549	     -0.15401434	     -1.31038056	     -2.02663822	     -5.21593600	      6.10621543	     25.62882894	     83.30590425	     -0.49138886	     -4.54858017	      5.10502877	     24.46759180	     78.01787611
      0.16666670	     -5.20195705	      2.54412722	     -4.88879289	     -0.01285508	      1.31373348	     -0.06687830	     -0.10933569	      0.38160918	      3.58513234	      3.38135672	      0.05901581	     14.46795665	     -7.66309174	     -7.49733597	      0.25859136	      0.44211850	     -3.35975241	      2.61572269	      0.04565297	     17.64976562	      5.11593179	     -7.49733597	      5.97067913	     -0.15641917	     -1.32812557	     -1.94735426	     -5.33372535	      7.10703362	     25.40339306	     83.64951642	     -0.41652372	     -4.50445878	      4.60671404	     24.25966909	     78.84591053
      0.18333330	     -5.22801427	      2.53623126	     -4.90747402	     -0.01173590	      1.31695339	     -0.06639522	     -0.11153505	      0.39972231	      3.34478118	      3.13158225	      0.05465642	     14.16000716	     -7.58252606	     -7.49824875	      0.26736497	      0.43156102	     -3.36313054	      2.43738776	      0.04254044	     17.48859371	      5.16675838	     -7.49824875	      6.05372561	     -0.21041401	     -1.39064426	     -1.91637215	     -5.43770030	      8.57175794	     25.40626948	     79.59337460	     -0.41415569	     -4.66287530	      5.50814184	     24.21556721	     75.18192130
      0.20000000	     -5.50503452	      2.53522604	     -4.98098160	     -0.01284458	      1.31966668	     -0.06604312	      0.20546406	      0.41556124	      3.34350420	      3.08888272	      0.05391117	     13.50354072	     -8.27331072	     -7.49916547	      0.62671546	      0.38319344	     -3.55846652	      2.46433141	      0.04301070	     17.18102428	      5.14645243	     -7.49916547	      6.41896949	     -0.19628689	     -1.34393289	     -2.02467996	     -5.30295249	      7.30470782	     25.35162335	     84.18513772	     -0.49110946	     -4.50080844	      4.10713004	     24.00978003	     79.75651689
      0.21666670	     -5.78063472	      2.51954409	     -4.96967905	     -0.01456280	      1.31990213	     -0.06673122	      0.62770701	      0.49439204	      3.38689656	      2.99932935	      0.05234817	     13.18402842	     -8.49831070	     -7.49972458	      0.98113632	      0.34603685	     -3.40087760	      2.55207700	      0.04454215	     17.00818992	      4.85945960	     -7.49972458	      6.68364493	     -0.17103263	     -1.36464500	     -2.02401769	     -5.30842046	      7.42524205	     25.36940670	     84.58647835	     -0.52167218	     -4.51153203	      4.00772273	     23.79296668	     80.37981083
      0.23333330	     -5.88318313	      2.43947570	     -4.90123635	     -0.01408103	      1.31908129	     -0.06674858	      0.74346959	      0.60554537	      3.46950389	      2.85428890	      0.04981674	     12.84032554	     -8.81045495	     -7.49988512	      1.12025057	      0.24445618	     -3.46136480	      2.63367549	      0.04596631	     16.95915763	      5.03513137	     -7.49988512	      6.79430451	     -0.09593260	     -1.42556057	     -2.01837075	     -5.29688369	      7.39563786	     25.35059479	     84.43078942	     -0.56475493	     -4.48817681	      3.92257323	     23.51741646	     80.67022382
      0.25000000	     -5.99546555	      2.37267954	     -4.88408388	     -0.01544246	      1.31511515	     -0.06674389	      0.92739921	      0.69531969	      3.34110922	      2.89813007	      0.05058191	     12.50383121	     -9.11326003	     -7.49996150	      1.26520234	      0.15989264	     -3.58353196	      2.72890835	      0.04762844	     16.97907057	      5.18907893	     -7.49996150	      6.87491224	     -0.01729904	     -1.44687441	     -1.97093110	     -5.32510636	      7.46662801	     25.34065998	     84.95464349	     -0.56722167	     -4.44307003	      3.49565330	     23.29947107	     81.36584913
